<svg version="1.1" viewBox="0 0 100 100" xmlns="http://www.w3.org/2000/svg" fill="#606f7b">
 <title>Sankalan</title>
 <path d="m69.358 0.0051373c1.1368 0.9494 0.61722-0.086 0 0zm-3.6977 0.2759c0.44487 0.2535 0.28026 0.1597 0 0zm2.1399 0.736c0.0163 0.7137 1.6496-0.1262 0 0zm0.17206 1.0442c2.4617 1.13 4.259 2.6359 0.56953 1.0145-1.8303 0.15 4.6849 2.7302 0.17726 1.0461 1.7531 0.9514 8.7915 4.5584 3.7584 1.6894 0.61369-0.071 6.4304 3.4456 8.5839 5.427 5.1548 3.9476 9.713 8.7979 12.439 14.843 1.2744 2.2864 3.7226 7.7061 1.3708 2.2202-2.3259-5.7256-5.8991-10.731-9.966-15.208-2.0536-2.0494-9.1441-5.7972-8.6369-6.4255 1.5444 0.5399-3.5922-2.3371-4.9692-3.2502-1.0432-0.5986-2.1397-1.1379-3.3265-1.3562zm3.4208 0.5446c-0.16347 0.4592 0.65235 0.086 0 0zm-21.678 0.01c-19.559-0.4947-38.137 13.693-43.83 32.758-3.7163 11.845-2.5202 25.242 3.2862 36.176-1.8948-4.3662-3.927-8.8401-4.1837-13.687 1.2688 4.8038 4.6114 14.315 6.1915 15.459-2.3304-4.2334-4.1834-8.8073-4.9766-13.618 2.0449 5.2157 3.642 10.79 6.8768 15.281 2.1883 2.6614 6.7834 7.2784 10.471 10.042 9.9331 7.6791 23.043 11.715 35.378 8.8453 5.447-0.7526 10.724-3.7644 14.815-6.9625-2.7694 1.3147 5.366-2.8347 5.8643-5.3096 1.3701-1.4889 5.5937-9.0472 2.1676-4.2376-8.478 10.785-22.513 16.851-36 15.223-2.6428-0.2366-5.2325-0.8798-0.98616-0.4759 9.0665 1.5276 18.442-0.7699 26.132-5.8242 2.2407-1.332 8.0335-5.902 2.9278-2.1358-1.743 1.339-4.7073 2.8484-1.151 0.4342 4.0022-2.6422 7.5475-5.882 10.573-9.5285 2.6707-4.3039 0.62293 1.4199-0.23048 2.362 2.7895-4.1738 4.5422-8.9663 6.6453-13.488 0.0708-2.6708 0.92937-3.789 0.74443-2.9183 0.8852-1.7555 0.90687-9.9838 1.2566-4.7391 1.0081-2.3652 1.9201-5.3372 2.937-4.8466 2.0592 3.32-0.10469 8.7118-1.1105 12.6-4.9516 15.745-18.49 28.207-34.378 31.378-18.235 4.2648-38.415-4.6954-48.292-20.862 1.4015 3.1593 5.5289 8.0869 8.9903 11.156 13.677 12.329 34.663 15.426 50.93 6.7532 2.7852-1.3766 8.9428-5.4306 8.7207-5.7222 14.726-12.241 21.123-34.592 13.666-52.703 1.5891 4.1314 2.8974 11.421 2.2557 14.107-0.32905-1.8183-1.4228-3.7542-2.2286-3.098-1.6306-2.9548-2.7281-6.6718-3.3662-9.5882-0.29282 0.2647-1.8704-5.9515-3.5918-7.6987-1.1012-1.6436-3.6561-5.9625-1.0203-2.02 1.3134 2.0528 4.5158 8.0953 1.7407 2.6644-1.3717-2.4944-1.7808-3.9034 0.0879-0.5802 1.5487 2.4964 4.5836 10.28 4.5408 9.3261-2.4631-7.7805-6.8946-14.952-12.94-20.328 7.6538 5.6364 12.152 14.589 14.576 23.721-1.4411-6.9802-4.2706-13.87-9.1869-19.032-2.3477-3.7343-7.2579-5.996-9.7161-8.5185-7.6156-4.315-16.07-8.3228-25.053-7.8411-5.0133-0.2682-13.573 2.1534-15.652 3.8173 0.57199 0.9626-6.1282 2.0752-7.9008 4.7791-1.7619 1.5517-7.9474 9.3321-3.0794 4.3179 4.4964-4.2143 9.9246-7.4264 15.837-9.0224-7.7077 2.3742-14.272 7.4879-19.864 13.203 0.43675-2.0703 4.2961-6.309 1.0363-2.4498-2.6092 3.8203-5.7543 7.601-7.2273 11.98-1.6939 2.0334-3.0172 7.6643-3.4936 12.054-0.21447 3.3857-0.85836 11.363 0.82935 12.217 0.14475-2.0368 0.43128-5.1902-0.26058-1.2948-0.95728-5.2869-0.58765-11.374 1.0391-16.308-0.69513 2.8446-0.80392 4.8441 0.21319 0.8478 2.0034-6.9124 5.959-13.158 11.168-17.992 1.6942-1.3779 2.8644-3.2338 0.48028-0.7604-1.565 1.0791-5.8166 6.7743-5.6964 5.5061 6.173-8.0927 14.872-14.409 24.75-16.627 0.13468-0.059 9.5578-1.4543 2.7923-0.3872-3.4815 0.8894 2.6707-0.8177 2.3006 0.1973 3.8077-1.1932 8.7491 0.01 12.967 0.6389 10.194 2.0428 19.51 8.4684 24.767 17.702 2.8478 3.2592 3.9589 8.2572 5.1939 11.776 1.3006 4.5547 2.08 9.1395 1.2684 10.102-0.40763 2.0675-0.95705 4.8069-0.10197 1.2633 0.79883 4.9315-1.7538 14.499-3.0999 15.78 1.3876-3.9575-1.7058 3.5482-2.7051 4.4205-2.5156 3.7038-6.295 8.0589-8.9496 9.7359-1.953 1.5238-7.334 5.9509-2.2366 2.106 1.9109-1.4824 8.8103-6.9763 3.9868-2.3198-6.9727 5.9942-15.696 10.227-24.852 10.936-0.77128 0.1177-8.2466-0.032-2.417-0.029 2.451-0.3594-3.2158 0.3628-2.5711-0.5143-4.5102 0.6997-9.8108-1.6552-14.393-3.13-5.0862-2.0375-9.4354-5.2106-12.991-8.954-2.6274-2.2745-4.8214-5.8898-6.0541-8.6646-1.2606-1.2664-3.4766-6.9195-3.5247-7.163 1.4701 3.7054-0.57064-2.74-0.52002-2.0722-0.0974-1.2015-0.75641-3.0952-0.34882-0.7146-1.8289-2.6064-0.53233-9.1629-2.6338-9.9926 0.097 3.8361-2.9238 7.5615-2.9433 1.6134-1.2601-21.814 15.156-43.004 36.109-47.04 9.9384-2.5641 20.653-0.9372 29.815 3.5984 2.3556 1.21 8.3712 4.7143 11.266 7.8187 3.4561 2.8145 7.8343 9.4212 8.8757 11.439-2.901-6.0652-7.528-11.08-12.639-15.265 4.9641 2.7947-2.8414-2.7238-4.2763-3.2859-7.2564-4.0901-15.512-6.3226-23.797-6.3852zm-42.41 47.506c0.19857-1.5666-0.3621-0.3095 0 0zm-0.0572-0.7124c0.59679-3.6744-0.60689-4.0858 0 0zm25.52-39.831c-1.5203 0.4113-1.722 0.9766 0 0zm60.383 24.446c-0.40013-1.5808-3.4531-8.1408-1.3317-3.1812 0.45383 1.056 0.90228 2.1145 1.3317 3.1812zm-82.307 40.516-0.50659-0.8501zm-0.50659-0.8501c-0.84484-1.604-1.6228-2.7946-0.31378-0.4796zm66.125 8.5598c1.6684-1.28 2.8578-2.4929 0.54721-0.4537zm-11.367-79.293c1.1583 0.9321 2.0354 0.4457 0 0zm-7.5355 1.3269c-6.5152 0.352 7.9615 1.9902 0.47133 0.5817-0.0396-0.5746 1.8214-0.314-0.47133-0.5817zm-13.417 0.1358c-0.89082-6e-4 0.62453 0.4173 0 0zm24.245 0.4968c0.75624 0.8078 2.9317 1.0949 0.85019 0.2568zm-24.48 0.2227c-0.28467 0.2837 0.49639 0.1148 0 0zm19.084 0.3774c2.2367 1.1756 2.6476 0.6423 0 0zm-22.425 0.2026c-0.41304 0.2549 0.46564-0.056 0 0zm30.538 0.3421c-0.52856 2.7887 4.851 1.1392 0.58717 0.2223-0.19573-0.074-0.39145-0.1482-0.58717-0.2223zm-8.8575 0.4257c0.94549 0.7162 1.7513-0.055 0 0zm18.488 0.4723c-0.0982 0.5313 0.54722 0.063 0 0zm-63.249 0.4145c-2.6334 1.9311-3.1775 3.1187 0 0zm46.884 0.2021c-0.10686 0.3686 0.50115-0.113 0 0zm11.498 0.2469c0.88753 1.1557 1.7201 0.5425 0 0zm6.4813 0.4959c-6e-3 0.8544 1.304 0.5196 0 0zm-48.054 0.041c-0.99125-0.04-1.4809 1.1922 0 0zm16.11 0.6024-0.35404 0.072zm-1.3084 0.052c-2.3445-0.191-0.66335 0.3791 0 0zm-16.31 0-0.29021 0.1357zm50.005 0.2c0.28883 0.6729 1.1193 0.2629 0 0zm-39.174 0.043-0.21792 0.088zm37.175 0.2369c0.84592 1.8649 2.3924 0.8923 0 0zm-30.081 0.2237c-1.8428-0.115-0.32368 0.4826 0 0zm-8.4806 0.078c-1.8921 0.3292-1.7832 0.6608 0 0zm-1.4272 0.093c-0.59225-0.027 0.24229 0.537 0 0zm6.0127 0.037c-1.6885 0.2873 2.2449-0.032 0 0zm3.9514 0.036c0.47644 0.148 0.24788 0.077 0 0zm4.0754 0.2726c-0.16048 0.1997 0.51426 0.01 0 0zm-40.264 0.019c-0.6811-0.031 0.19215 0.3982 0 0zm45.761 0.01c-1.0409 0.025 0.58726 0.2673 0 0zm0.6826 0.046c-0.63703 0.079 0.4419 0.1669 0 0zm-46.954 0.053c-2.1561 1.9151-2.9842 3.5074 0 0zm25.831 0.013c-0.95702-0.039-0.29694 0.5176 0 0zm20.942 0.1906c-1.2146 0.1164 1.6422 0.4156 0 0zm-21.8 0c-1.9771 0.1217-7.5031 3.1858-2.8732 0.9985 0.95003-0.3559 1.9192-0.6542 2.8732-0.9985zm22.961 0.1319c-0.36442 0.5309 0.91 0.033 0 0zm16.056 0.016c3.0994 1.9344 8.2898 7.9347 9.2136 8.3358-2.4173-3.4207-5.5101-6.4259-9.2136-8.3358zm-14.733 0.3573c-0.64074 0.041 0.43271 0.1938 0 0zm-24.505 0.037c-1.1056-0.046-3.1227 1.1606-0.87805 0.379zm32.878 0.2518c8e-3 0.5992 0.78988 0.1004 0 0zm-6.9001 0.1431c-0.90951-0.034 0.65217 0.3871 0 0zm8.4566 0.2625c1.0269 0.8343 1.5535 0.4411 0 0zm-0.67299 0.1802c-0.35512 0.1762 0.46799 0.1502 0 0zm-35.564 0.07c-0.45207 0.3066-0.35774 0.2426 0 0zm49.235 0.191 0.40565 0.3748zm-11.309 0.439c-0.0742 0.4339 0.65058 0.1143 0 0zm-42.074 0.3072c-2.3577 1.0637-4.1303 2.9871-0.83289 0.5999 0.1946-0.2266 0.94175-0.1141 0.83289-0.5999zm54.219 0.1217c1.4763 2.5768 2.6522 2.6179 0 0zm-11.032 0.406 0.15459 0.1252zm-64.844 0.5541c-1.6185 1.5914-3.9977 4.8215-1.1515 1.4145 0.4067-0.4507 0.81973-0.9007 1.1515-1.4145zm-0.50616 0.047c-0.76368 0.1195 0.35709 0.3354 0 0zm66.786 0.3814 0.22489 0.165zm0.40352 0.2729c0.0143 0.5096 0.62476 0.141 0 0zm-47.426 0.1533c-1.6918 0.051-5e-3 0.7319 0 0zm57.437 0.1857c0.49583 0.8581 2.0222 2.1478 0.5867 0.5848zm-9.5912 0.037c0.39658 0.3463 0.27762 0.2425 0 0zm-5.9363 0.088c-0.1937 0.4129 0.56094-0.039 0 0zm-43.153 0.023c-1.4234 0.9278-6.0939 4.2317-1.888 1.7188 0.51493-0.5936 2.0999-1.2025 1.888-1.7188zm49.519 0.2433 0.23715 0.221zm-6.3372 0.1279c0.39219 0.3616 0.28692 0.2646 0 0zm0.34588 0.4369c0.0867 0.7057 1.2535 0.038 0 0zm1.2765 0.7207c0.50041 0.5732 0.46495 0.5326 0 0zm-63.247 0.056-0.0939 0.8377zm63.88 0.4169 0.78036 0.5784zm-39.353 0.5357 0.52144 0.6239zm0.52144 0.6239c1.6315 2.0852 4.5013 9.6332 6.5921 7.0039-1.4523-2.9852-4.4685-4.6073-6.5921-7.0039zm-10.58-0.4369-0.17119 0.075zm-0.17294 0.077-0.0707 0.06zm-14.937 0.1868c-5.5119 6.5655-8.6638 14.945-9.8274 23.458 1.3955-8.4646 4.576-16.712 9.8274-23.458zm65.958 0.022c0.63368 0.49 0.45905 0.3549 0 0zm-0.59786 0.082c0.0286 0.5395 0.86354 0.01 0 0zm-61.798 0.023c-4.8923 4.8539-8.4314 11.144-10.194 17.809-0.21319 2.3697-0.97846 5.5713 0.0802 1.6132 1.0223-3.755 2.2552-7.1977 3.6254-9.9671 1.9447-3.3023 4.2054-6.3938 6.4883-9.4555zm77.552 0.6492c0.12542 1.9984 4.9072 6.95 1.6936 2.3714-0.56-0.7936-1.0722-1.6246-1.6936-2.3714zm-65.312 0.053-0.18429 0.1623zm-0.31662 0.258-0.18254 0.1655zm-2.4543 0.1466-0.38994 0.4657zm54.188 0.5416c0.0441 0.5464 0.84272 0.1751 0 0zm11.46 0.4208c0.74975 1.4254 1.8969 1.5537 0 0zm-10.154 0.08c-0.15252 0.7015 0.9365-0.058 0 0zm5.8044 0.033c4.5157 5.2342 7.1571 11.82 9.1877 18.404-1.448-6.7923-4.395-13.398-9.1877-18.404zm-62.227 0.037c-1.1512 0.5718-1.2024 1.492 0 0zm56.829 0.2772 0.0603 0.2415zm-0.65114 0.1784c2e-3 0.4403 0.75983 0.2626 0 0zm1.0538 0.1748 0.0341 0.2353zm-73.944 0.046c-0.33283 0.6902-0.30732 0.6373 0 0zm74.106 0.2446c2e-3 0.516 0.63469 0.2117 0 0zm-71.033 0.1596c-0.56729 0.8993-0.71662 1.1362 0 0zm21.88 0.08c1.815 1.5207 4.305 7.658 0.40123 3.2244 1.7811 1.5777 2.1908 4.2092-0.41755 1.5308-1.7962-1.8869-5.5692-5.889-1.8434-1.3404 13.434 15.815 27.873 30.7 41.562 46.275 1.1224 1.7626 7.4237 5.4822 3.2689 1.8149-2.2143-1.9048-8.1692-6.8724-4.9512-9.0616 5.3964 2.7126-2.4817-3.6569-3.5076-5.2283-8.4957-9.0942-17.076-18.096-25.297-27.457-3.0169-3.3066-6.0726-6.577-9.2156-9.7583zm48.717 0.039c0.0271 0.4335 0.68516 0.1261 0 0zm-58.61 0.07-0.33888 0.3924zm59.527 0.09c-0.25352 0.5344 0.94703 0.2376 0 0zm9.3104 0.4016c0.26243 0.7861 1.7499 2.1779 0.55005 0.6323zm-74.275 0.088c-0.39029 0.7162-0.27362 0.5021 0 0zm32.115 0.014c-3.9879-0.6558-3.7606 2.8767-0.20535 3.1838-2.0035-3.8208 6.7393-1.7807 8.6702-0.054 3.7773 2.2693 5.8945 6.3787 7.1592 10.503 0.52705 1.8201 5.1546 5.9606 5.0258 4.8124-6.2406-3.3855-0.35007-13.36-6.2638-16.292-4.5783-1.846-9.5433-1.9489-14.386-2.1531zm-39.425 0.3694c-0.42323 0.6472-0.36849 0.5635 0 0zm8.8854 0.4418c-0.56747 0.1466 0.31627 0.3423 0 0zm-2.0945 0.054c-0.40653 0.6344-0.42436 0.6623 0 0zm66.72 0.6753c-0.37652 0.3827 0.39608 0.1977 0 0zm-62.913 0.2469-0.20526 0.1666zm-4.5065 0.1126c-2.4514 3.8104-5.3322 11.64-5.4642 13.9 1.3433-4.8465 3.0546-9.4968 5.4642-13.9zm-7.0447 0.052c-0.59964 0.2423 0.0349 1.3673 0 0zm83.901 0.069c0.55956 1.9483 1.1459 0.5548 0 0zm-8.895 0.1566 0.1022 0.1725zm9.6554 0.096 0.024 0.2834zm-73.8 0.2307-0.12752 0.1409zm-4.8192 0.2053c-0.37803 0.6235-0.42926 0.7079 0 0zm-6.6813 0.3972c-0.56027 0.2866-0.0421 0.9451 0 0zm11.471 0.6595-7e-3 0.019zm1.3433 0.203-0.0249 0.038zm-1.7211 0.01c-0.38206 0.4608 0.43446-0.012 0 0zm77.156 0.1529c-0.0835 0.7182 0.71525 0.6093 0 0zm-2.1561 0.4632c0.14943 1.7645 1.4646 0.5803 0 0zm-78.033 0.1181c-0.31754 0.3717 0.37958 0.2472 0 0zm-5.8655 0.076c-1.0253 0.8466-0.44399 1.7653 0 0zm8.3098 0.091-0.0166 0.029zm12.314 0.322c-0.0296 0.062 0.28285 0.398 0 0zm0.0952 0.1731c3.0768 4.2856 2.3246 9.7878 4.532 14.319 5.49 9.0772 17.666 11.026 22.387 20.754 2.5278 5.1217-5.7349 4.7029-5.4738 3.3479 2.992 3.5453 6.9258 7.4035 11.485 3.9417 2.0923-1.7844 7.6957 1.3116 3.6598-2.0296-12.185-13.455-24.755-26.548-36.589-40.333zm38.384 42.321c1.2208 1.6198 3.3137 3.1843 0 0zm-62.491-42.381-0.0827 0.3372zm-0.19652 0.5836-0.11765 0.2757zm0.70966 0.3725c-0.718 0.3561-1.141 2.2377-0.29921 0.7067zm7.3447 0.1288-0.0563 0.126zm80.831 0.7351c7e-3 2.3341 1.957 2.9891 0 0zm-89.45 0.075c-0.53044 0.7948-0.9704 3.0881-0.25881 0.9256zm91.964 0.3484c-0.17857 1.6894 2.0545 2.2279 0 0zm-88.887 0.3143c-1.3748 1.8036-1.3817 4.0555-0.32055 0.7916zm-0.942 0.3916c-1.3813 1.6549 0.17953 1.2635 0 0zm82.418 1.47c-0.14346 0.7967 0.58487 0.6423 0 0zm-2.098 0.2871c-0.39362 0.6023 0.43123 0.2141 0 0zm0.21007 0.5366 0.26101 0.7857zm8.1242 0.1251c0.41386 2.2663 1.516 3.723 0 0zm-49.785 0.015c-0.16412 1.3551 2.2181 1.7378 0 0zm-42.301 0.085c-0.85531 0.6408 0.19488 0.6866 0 0zm86.259 0.173c-0.0127 0.3434 0.45453-0.1221 0 0zm9.6833 0.1176c0.14586 0.5095 0.1 0.3491 0 0zm-9.6615 0.058c0.49321 1.8926 1.4763 2.8027 0 0zm9.7689 0.3386c0.17325 0.7124 0.2634 1.083 0 0zm-11.672 0.2031c-0.25023 0.5048 0.74934 0.5094 0 0zm-74.706 0.5075c-0.30944-0.027-0.13919 0.781 0 0zm74.883 0.1122 0.12826 0.2922zm-85.089 0.035c-0.60072 0.9314 0.15643 2.1231 0 0zm46.101 0.5803c1.5929 2.6369 1.6539 1.2323 0 0zm42.094 0.2478 0.10218 0.2486zm8.8741 0.7105c-0.23163 1.6553 1.1506 1.8803 0 0zm-97.569 0.6159c-0.68175 1.1555 0.10851 2.0065 0 0zm88.612 0.088c0.0896 1.0728 0.94629 3.3247 0.29611 0.9533zm-87.4 0.088-0.0823 0.2872zm88.107 0.5169c0.17179 1.4268 0.83333 2.5957 0 0zm2.4391 2.0713c-0.24205 0.5601 0.37533 0.2823 0 0zm-92.328 0.03c-0.3366 0.5397-6e-3 1.2957 0 0zm91.04 0.096c0.84755 4.0717 1.135 2.8892 0 0zm-1.1617 0.011c-0.0779 1.2394 0.75567 1.1814 0 0zm-82.485 0.084c-0.62863 0.3283 0.24281 0.4057 0 0zm80.702 0.018 0.0772 0.3062zm4.5257 0.4195c-0.10283 0.4286 0.41768 0.2463 0 0zm-86.062 0.068c-0.54015 2.1627-0.70773 7.2983-0.18455 2.1814 0.22291-0.6997 0.27791-1.4534 0.18455-2.1814zm81.673 0.062-4e-3 0.2552zm-0.0139 0.664 0.0183 0.2012zm3.6968 0.049c0.30821 3.9268 0.79553 2.5529 0 0zm-62.05 0.01c1.9864 3.7906 2.8095 2.7785 0 0zm60.923 0.2875c-0.29803 0.3816 0.32172 0.1102 0 0zm-91.771 0.3529c-0.6724 1.445 0.26321 2.0587 0 0zm93.891 0.016c-0.0596 1.6559 0.98015 2.6406 0 0zm-85.849 0.2316c-0.91396 2.1826 0.36287 2.4838 0 0zm1.28 0.018c-0.49576 0.134 0.30059 0.5624 0 0zm-8.7824 0.3367c-0.40137 2.6946 0.0407 3.591 0 0zm8.6928 0.1914-0.13756 0.2253zm82.799 0.045 0.0559 0.2648zm-2.5282 0.2371c-0.0161 0.6827 0.80536 0.8899 0 0zm-80.322 0.1364c-0.40143 0.7767 0.41489 0.2503 0 0zm-2.4714 0.3041-0.0167 0.3229zm2.3321 0.084c-0.38281 1.6814 0.0245 3.0282 0 0zm85.634 0.1114c-0.19346 0.2899 0.32916 0.1004 0 0zm-4.8428 0.3063c0.1524 0.5193 0.11271 0.384 0 0zm-0.17338 0.123c-0.26291 0.5008 0.78116 0.47 0 0zm-81.879 0.4212-0.052 0.2442zm82.08 0.088c-0.56969 0.4136 1.1422 0.7991 0 0zm-82.133 0.1578-0.0336 0.1561zm-1.1717 0.064c-0.41192 0.5681 0.42466 1.0504 0 0zm1.1525 0.4294-0.0723 0.6985zm90.451 0.1081c-0.38019 1.2503 1.2304 1.2227 0 0zm-8.2413 0.089c-0.12493 0.3462 0.3987 0.1087 0 0zm-90.261 0.039-2e-3 0.042zm90.338 0.496c-0.17658 0.4481 0.35923 0.163 0 0zm-83.518 0.069c-0.33725 0.3742 0.41435 0.6935 0 0zm83.747 0.3269-0.0154 0.2726zm-82.582 0v0.6247zm25.425 0.028c-0.0446 1.69 2.1368 1.3807 0.1367 0.1695zm-26.389 0.051-0.014 0.2732zm-7.0491 0.065c-0.21189 2.0358 0.42691 3.8174 0.0866 0.6646zm7.9653 0.6273c-0.5979 2.0442 0.84628 1.8465 0 0zm-1.1376 0.3403-8.9e-4 0.2724zm2.3233 0.069c-0.46029 0.594 0.45317 0.2394 0 0zm0.11923 0.516c-0.32021 0.3358 0.57434 0.4969 0 0zm86.987 0.4145c0.24851 0.7467 0.58847 0.2413 0 0zm-90.535 0.011c-0.0677 1.3208 0.39462 0.2841 0 0zm3.5365 0.1767c-0.27606 0.2686 0.43367 0.2287 0 0zm-2.4613 0.4073c0.0306 0.7808 0.0262 0.6691 0 0zm-1.1093 0.1798c-0.24064 1.9494 0.37887 3.651 0.0783 0.6339zm-0.83719 0.4315c-0.24037 1.453 0.17864 2.8376 0 0zm-0.53497 0.1426c-0.23112 0.2594 0.31537 0.1453 0 0zm5.02 0.042c-0.38804 0.4402 0.71902 0.7153 0 0zm-0.2022 0.1293 0.0795 0.2941zm-0.01 0.6283c0.11149 1.1921 0.47568 0.3154 0 0zm-2.2858 0.3662 0.0197 0.271zm20.942 0.5088c4.4917 3.5655 5.1783 9.7826 4.4708 15.148 1.416 6.7291 9.5369 6.2825 14.812 6.9823 2.5737 0.996 5.7462-1.137 1.2458-1.0898-5.5532-0.9292-9.4207-4.293-12.01-9.4124-2.0176-4.628-3.884-9.1289-8.5187-11.628zm-20.856 0.5791c0.027 0.5163 0.0162 0.3096 0 0zm90.443 0.2339c-0.48597 1.7218 0.30275 1.6259 0 0zm-33.159 0.3864c0.37748 2.0099 3.0948 3.3452 0.61767 0.6883zm-59.328 0.2755c-0.2137 0.414 0.46127 0.2885 0 0zm4.5785 0.017-0.01 0.2017zm84.24 0.038-0.0553 0.3398zm-87.529 0.017c0.0167 0.5389 0.0121 0.3914 0 0zm84.359 0.1279c-0.0192 0.8862-0.0315 1.446 0 0zm-81.16 0.444c-0.21862 0.01 0.2139 0.01 0 0zm-4.1785 0.072c-0.41929 0.3528 0.37908 0.5831 0 0zm91.552 0.6537c-0.41965 0.6312 0.24675 0.4502 0 0zm-4.0326 0.2362c-0.27607 4.7457-2.5114 13.038-3.3593 15.175 1.829-4.8139 3.3212-10.022 3.3593-15.175zm5.1061 0.059-0.0136 0.1135zm-3.8623 0.7638c-0.0695 0.5792-0.0615 0.5124 0 0zm5.2332 1.8835c-0.63451 3.137 0.0849 4.1181 0 0zm-32.861 0.4069c0.54127 2.0005 2.2195 1.5823 0 0zm-63.899 0.034c0.10353 2.3088 1.0298 3.3711 0 0zm7.1373 0.2141c-0.17904 1.0186 0.2642 0.1181 0 0zm0.94462 1.5446 0.0995 0.2939zm81.414 0.098-0.0515 0.2683zm-81.326 0.4266c-0.33674 0.8108 0.46408 0.2458 0 0zm35.364 0.4807c1.8094 2.3416 4.2423 2.3647 0.88076 0.3409-0.27472-0.1582-0.58936-0.2226-0.88076-0.3409zm-44.036 0.1453c0.24135 1.8608 0.89419 0.5694 0 0zm8.8483 0.089 0.14777 0.8111zm-9.3776 0.424c1.4095 6.6508 3.6592 13.182 7.8278 18.577 2.2743 4.0331 6.4229 6.4647 9.3798 9.931-3.4063-2.1229 4.1237 4.017 5.8845 4.6526-3.4326-2.6201-0.0715-0.8617 1.8042 0.2096-6.3368-3.8741-11.464-9.4114-16.599-14.756-4.1266-5.4011-6.1584-12.212-8.2969-18.614zm-0.70704 0.1203c-0.23483 2.3926 1.7759 2.1642 0 0zm2.5369 0.1762c0.023 2.6647 1.446 2.7482 0 0zm94.78 0.1927c-0.91497 2.7799-0.37741 3.414 0 0zm0.69219 0.1413-0.11303 0.6162zm-87.643 0.08c-0.28938 0.3215 0.45662 0.4688 0 0zm85.404 0.1306c-0.6968 0.8522-0.0959 1.2033 0 0zm-51.485 0.9886c0.11309 3.1056 3.4734 2.1531 0 0zm43.793 0.2012c-0.89064 0.7931 0.1002 0.6952 0 0zm9.5348 0.1449c-0.92315 2.1963 0.0873 1.9072 0 0zm-8.743 2.2869c-0.21582 0.7434-0.19196 0.6613 0 0zm-85.294 0c-0.34627 1.1466 1.5683 1.2273 0 0zm67.222 0.2607c-0.67677 0.4217 0.74501 0.3302 0 0zm17.899 0.038-0.0611 0.1311zm4.9056 0.17c-0.46256 0.2541-0.091 0.793 0 0zm-91.921 0.051c-0.18645 0.6993 0.62501 0.7106 0 0zm95.065 0.1651c-1.8519 6.6178-5.1178 12.818-9.5195 18.024 4.416-5.1172 8.1112-11.339 9.5195-18.024zm-9.5195 18.024c-0.99329 1.1777-4.0844 4.4001-1.3202 1.5004l0.6676-0.7428zm8.9291-17.878c-0.18483 0.5949-0.4209 1.3548 0 0zm-1.7202 0.4132c-2.6023 5.4001-3.6432 8.4194-6.5614 12.156-0.93021 2.1456-5.7044 6.0503-5.591 6.4379 3.9013-3.0222 6.7964-7.024 9.1886-11.361 2.0598-2.0701 1.6762-4.7356 2.9638-7.2333zm-3.343 0.255c-0.24893 0.4869-0.19171 0.375 0 0zm-3.4496 0.2508c-0.49147 0.2897 0.3884 0.2328 0 0zm5.1406 0.5379c-0.50023 0.3385 0.27087 1.2659 0 0zm-88.222 0.2871c0.75332 2.3199 0.90702 0.5431 0 0zm90.977 0.1882c-0.75091 0.823-0.23934 2.136 0 0zm-90.942 0.5192-0.0144 0.2844zm-3.271 0.1526c0.45974 2.5754 4.0425 7.5876 1.4216 2.1158-0.37115-0.7704-0.85244-1.4848-1.4216-2.1158zm92.584 0.245-0.12171 0.2721zm-42.453 0.1449c0.0713 2.4403 5.3048 3.9494 1.4494 1.2873l-0.7247-0.6436zm-45.956 0.7535c0.41809 1.4519 1.1117 1.5655 0 0zm78.79 0.1609c-0.22995 0.4595-0.1364 0.2726 0 0zm-70.224 0.1145c-0.18997 0.2413 0.41463 0.2137 0 0zm74.089 0.3878c-0.25711 0.6493-0.35127 0.8872 0 0zm-1.8211 0.1032c-1.1688 0.7285 0.78765 0.3693 0 0zm-71.785 0.1435c-0.29678 0.3405 0.43485 0.2614 0 0zm-9.0597 0.7563c0.65063 1.7979 1.6461 2.1174 0 0zm82.228 0.016c-0.39098 0.1913 0.0333 0.9555 0 0zm-2.0447 0.2674c-1.321 0.7176 0.40512 0.5519 0 0zm5.1349 0.049c-1.5818 1.9736-1.8316 3.9536-0.27237 0.6434zm-75.333 0.3175 0.0799 0.1337zm78.335 0.2808c-0.62198 0.3295-0.23592 1.0264 0 0zm-78.545 0.3095c-0.0733 0.7343 0.79082 0.1942 0 0zm0.87038 0.4199c0.37076 0.4273 0.3144 0.3623 0 0zm74.216 0.7122c-1.6459 1.5718 0.0537 1.1942 0 0zm-73.493 0.1065c-0.097 0.2677 0.6448 0.5767 0 0zm76.023 0.09c-0.76133 0.8759-1.3562 2.9596-0.33694 0.8267zm-76.504 0.1153 0.0284 0.2469zm-5.2572 0.01c0.27645 0.6893 1.292 0.9289 0 0zm5.4397 0.2697c-0.33528 0.5593 0.85864 0.1224 0 0zm-9.1287 0.039c1.8366 3.1822 6.6266 9.0858 7.8084 9.5024-3.1494-2.6417-4.2979-7.4225-7.8084-9.5024zm1.7076 0.2822c0.70266 2.1452 1.1839 0.5244 0 0zm8.4701 0.263c0.43775 0.818 0.47725 0.162 0 0zm77.644 0.466c-1.7835 2.5353-2.868 4.5953-0.46061 0.9011zm-3.9453 0.2579c-1.6694 1.6436-0.37229 1.4158 0 0zm-78.756 0.2642c0.0248 0.5157 0.68169 0.1736 0 0zm-7.0923 0.6708c0.69313 1.5734 2.0546 2.5028 0 0zm13.136 0.3507 0.0953 0.087zm58.017 0.4356-0.4645 0.5212zm-57.178 0.2803c1.1978 1.4862 0.46366 0.3118 0 0zm-4.5174 0.1498 0.0127 0.04zm64.759 0.1914c-0.29194 0.4522-0.2156 0.3339 0 0zm-2.2958 0.3162c-0.71889-0.053-0.097 0.7886 0 0zm0.6577 0.4489-0.21182 0.1645zm-57.278 0.199 0.0755 0.1162zm-5.0026 0.4244 0.21503 0.2502zm61.345 0.1096c-0.57044-0.04 0 0.3695 0 0zm12.418 0.056c-0.59209 0.206-0.17103 0.929 0 0zm-67.865 0.035c-0.2627 0.545 0.89667 0.3274 0 0zm-5.5489 0.183c0.3525 0.4035 0.2594 0.2969 0 0zm0.34413 0.4131c0.11182 0.4807 0.65582 0.1907 0 0zm5.7996 0.2093 0.0616 0.063zm70.216 0.1287c-1.468 1.8211-2.2707 3.5431-0.37005 0.5934zm-3.737 0.083c-1.1434 0.6771 0.0621 0.5995 0 0zm-13.226 0.1761c-0.37205 0.3465-0.2164 0.2016 0 0zm-61.405 0.1163c0.63851 2.461 8.8801 7.6361 3.4824 3.2198-1.1608-1.0732-2.2859-2.1875-3.4824-3.2198zm60.735 0.4731-0.38949 0.3408zm-55.542 0.4708 0.34414 0.3462zm54.433 0.075c-1.0332 0.3517-1.3669 1.3881 0 0zm13.903 0.1387c-1.2313 0.7433-0.0192 0.5188 0 0zm-68.491 0.6927 0.065 0.058zm67.773 0.1086c-0.41881 0.5515-0.57861 0.7619 0 0zm-13.384 0.3104-0.0428 0.024zm-1.4879 0.1042-0.44914 0.4074zm-2.7517 0.074c-0.56061-0.049 0.0378 0.3511 0 0zm-49.29 0.2076c0.95382 0.8359 1.0138 0.4155 0 0zm48.943 0.01c-0.56336-0.057 0.0348 0.3532 0 0zm20.882 0.1275c-0.52324 0.1076 0.26304 0.2674 0 0zm-68.26 0.245c-0.29115 0.1142 0.4171 0.1113 0 0zm-9.5222 0.088c0.0862 1.3681 1.9517 0.8253 0 0zm57.825 0.1507c-1.8423 1.2365-6.5127 3.5017-2.0806 1.5127 0.7575-0.4002 1.4857-0.8811 2.0806-1.5127zm19.933 0.036c-2.2831 2.3466-2.553 3.3997 0 0zm-67.718 0.186c-0.24978 0.3326 0.90001 0.3721 0 0zm6.2778 0.2147c-0.3696 0.1439 0.34126 0.4075 0 0zm41.138 0.1682 0.0402 0.044zm-0.0188 0.057-0.16859 0.049zm-38.852 1.3079c-0.36366 0.1578 0.69543 0.054 0 0zm1.0673 0.389c-0.3719 0.3977 0.82565 0.3845 0 0zm33.463 0.087c-0.92346 0.3641 0.41969 0.5733 0 0zm-48.47 0.058c0.27604 1.0194 2.7014 1.6012 0 0zm15.47 0.126c2.0468 0.5655 1.3403 0.2227 0 0zm32.291 0.016c-1.2375-0.079-0.33741 0.6935 0 0zm0.27818 0.1302c-3.4881 1.3564-3.465 2.271 0 0zm-31.93 0.2839c-0.35322 0.1768 0.69726 0.011 0 0zm0.61621 0.043c-0.0291 0.523 1.1899-0.027 0 0zm38.759 0.2523-0.25629 0.1795zm-38.083 0.034c-0.44761 0.012 0.5529 0.5636 0 0zm-10.884 0.042c-0.0155 0.5511 1.5264 0.7244 0 0zm11.806 0.2146c-0.87813 0.2874 1.0061 0.483 0 0zm42.155 0.1364c-0.23223 0.3523-0.20428 0.3099 0 0zm-5.7323 0.014c-1.968 0.5055-0.56416 0.9708 0 0zm-51.748 0.011c1.228 2.992 5.6613 1.3612 0 0zm19.094 0.1752c-0.1101 0.242 0.5725 0.047 0 0zm-20.34 0.013c1.4403 1.7202 7.2202 5.0491 2.5802 1.8045-0.85067-0.6142-1.6781-1.2696-2.5802-1.8045zm17.92 0.2946c-0.43449 0.026 0.37929 0.2738 0 0zm49.081 0.2022c-0.31456 0.4568-0.25334 0.368 0 0zm-45.191 0.076c-0.0774 0.5368 1.2029 0.2458 0 0zm1.1376 0.1338c0.31458 0.7439 2.4799 0.037 0 0zm15.931 0.014-0.10554 0.03zm2.7395 0.082c-1.9486 0.6211-8.0189 1.7742-2.7875 0.8638 0.93755-0.2488 1.8998-0.4554 2.7875-0.8638zm-20.06 0.01c0.0934 0.4377 0.4552-0.2208 0 0zm2.733 0.027c-0.25517 0.2477 0.7355 0.099 0 0zm35.726 0.026c-1.4256 1.0295 0.80896 1.1273 0 0zm-37.781 0.061c-0.0972 0.2493 0.58068 0.016 0 0zm-0.70224 0.01c-0.44957 0.3121 0.72625 0.3625 0 0zm3.2108 0.1538c-0.94486-0.2675-0.0468 0.4438 0 0zm13.766 0.058c-3.1198 0.3579-2.1146 0.7095 0 0zm-27.865 0.097c-0.42308 0.1095 0.34242 0.1903 0 0zm17.151 0.233 0.53253 0.074zm-4.5593 0.085c0.40442 0.6551 2.1814 0.1738 0 0zm37.122 0.3054-0.0502 0.054zm-24.547 0.026c-1.3148 0.014 0.28558 0.47 0 0zm-11.069 0.1231h-0.0266zm1.2573 0.076c1.6423 0.3995 1.272-0.1228 0 0zm8.371 0c-3.7522 0.1035 0.5611 0.4245 0 0zm-3.1618 0.1292c-4.6974 0.09 3.4545 0.2748 0 0zm3.3789 0.065c-0.62453-0.1653-0.0409 0.4425 0 0zm-23.191 0.056c1.6838 0.7664 0.90329-0.1245 0 0zm-6.442 0.1324c0.61597 1.0655 2.379 0.8549 0 0zm4.8816 0.1126c2.0638 1.0761 1.942 0.7601 0 0zm36.481 1.1672c-0.61396 0.2492-0.0475 0.3382 0 0zm-32.549 0.2003c2.683 0.8168 2.1793 1.8707 5.5799 1.6275-1.7554-0.8139-3.6932-1.2351-5.5799-1.6275zm48.522 0.3479c-1.297 0.4013-1.8315 1.8517-0.27022 0.3154zm-19.357 0.492c-0.46609 0.3323 0.3466 0.245 0 0zm-23.003 0.047c-0.2208 0.286 0.65338 0.013 0 0zm-12.001 0.1122c1.8252 1.37 1.8047 0.73 0 0zm13.077 0.1422c0.19503 0.8539 1.7474-0.1415 0 0zm21.966 0.4145c-0.87848 0.2211 0.27308 0.4878 0 0zm-31.334 0.072c-0.44884 0.2789 0.94139 0.1671 0 0zm48.722 0.2352c-1.9309 1.0257-3.5104 2.7661 0 0zm-19.954 2.3445c-0.49044 0.096 0.16216 0.4665 0 0zm-1.2018 1.2477c-0.74711 0.074 0.1905 0.4822 0 0zm13.978 0.8528-0.12842 0.058zm-14.752 0.6117c-2.2868 0.5402 0.53113 1.0149 0 0z" stroke-width=".0609"/>
</svg>